<svg width="32" height="32" viewBox="0 0 32 32" fill="none" xmlns="http://www.w3.org/2000/svg">
<path d="M15.9997 0C7.17757 0 0 7.17757 0 16C0 24.8227 7.17757 32 15.9997 32C24.8222 32 32 24.8227 32 16C31.9997 7.17757 24.8219 0 15.9997 0ZM15.9997 30.4219C8.0476 30.4219 1.57806 23.9524 1.57806 16C1.57806 8.04787 8.0476 1.57806 15.9997 1.57806C23.9519 1.57806 30.4219 8.04787 30.4219 16C30.4217 23.9524 23.9519 30.4219 15.9997 30.4219Z" fill="#484E53"/>
<path d="M7.87305 12.6096H11.5757V22.271H7.87305V12.6096Z" fill="#A9A9A9"/>
<path d="M9.68841 11.0679C10.7234 11.0679 11.5624 10.3025 11.5624 9.35831C11.5624 8.41414 10.7234 7.64874 9.68841 7.64874C8.65345 7.64874 7.81445 8.41414 7.81445 9.35831C7.81445 10.3025 8.65345 11.0679 9.68841 11.0679Z" fill="#A9A9A9"/>
<path d="M20.8831 12.3909C20.1248 12.3909 19.4823 12.529 18.9541 12.8049C18.4265 13.0811 17.9052 13.5403 17.3895 14.1831V12.6092H13.9414V22.2707H17.6441V17.6309C17.6441 16.7514 17.7837 16.1423 18.0628 15.8024C18.3418 15.4629 18.7053 15.293 19.1543 15.293C19.5606 15.293 19.876 15.419 20.1006 15.6707C20.3252 15.9224 20.437 16.3513 20.437 16.9581V22.2707H24.1581V16.1302C24.1581 14.8564 23.8682 13.9148 23.2888 13.3052C22.7102 12.6955 21.9077 12.3909 20.8831 12.3909Z" fill="#A9A9A9"/>
</svg>
