<svg width="32" height="32" viewBox="0 0 32 32" fill="none" xmlns="http://www.w3.org/2000/svg">
<path d="M15.9997 0C7.17757 0 0 7.17757 0 16C0 24.8227 7.17757 32 15.9997 32C24.8222 32 32 24.8227 32 16C31.9997 7.17757 24.8219 0 15.9997 0ZM15.9997 30.4219C8.0476 30.4219 1.57806 23.9524 1.57806 16C1.57806 8.04787 8.0476 1.57806 15.9997 1.57806C23.9519 1.57806 30.4219 8.04787 30.4219 16C30.4217 23.9524 23.9519 30.4219 15.9997 30.4219Z" fill="#484E53"/>
<path d="M23.1403 10.7868C23.508 10.5969 24.3885 10.0327 24.8036 8.82181C24.8036 8.82181 23.8033 9.54509 22.442 9.63031L22.4173 9.64399C22.0605 9.25362 21.6262 8.94198 21.1422 8.72899C20.6582 8.516 20.135 8.40635 19.6062 8.40705C17.5 8.40705 15.7928 10.1145 15.7928 12.2207C15.7928 12.5403 15.8325 12.8506 15.9069 13.1473L15.8885 13.1197C15.8885 13.1197 11.804 13.3538 7.95324 9.14111C7.95324 9.14111 6.25077 12.0345 9.16572 14.2472C8.52739 14.3535 7.40013 13.779 7.40013 13.779C7.40013 13.779 7.46378 16.821 10.4847 17.5659C9.99552 17.6937 9.0805 17.7358 8.78278 17.6085C8.78278 17.6085 9.22937 19.9272 12.3145 20.3317C11.5273 20.7786 10.0594 22.1399 6.74023 21.8845C6.74023 21.8845 9.12364 23.8416 13.5488 23.5654C17.974 23.2893 21.1866 20.3101 22.4843 17.1616C23.782 14.0131 23.4209 12.2204 23.4209 12.2204C23.4209 12.2204 24.5053 11.6513 25.2507 10.2899C24.9064 10.393 23.6295 10.705 23.1542 10.8204C23.1494 10.8093 23.1448 10.7981 23.1403 10.7868Z" fill="#A9A9A9"/>
</svg>
